<svg xmlns="http://www.w3.org/2000/svg" viewBox="0 0 24 24">
  <path d="M10.42 4.24c.84-.32 2.32-.32 3.16 0l.54 1.86c.51.2.99.48 1.43.82l1.88-.47c.72.54 1.46 1.82 1.58 2.71l-1.35 1.39c.04.28.06.57.06.86s-.02.58-.06.86l1.35 1.39c-.12.89-.86 2.17-1.58 2.71l-1.88-.47c-.44.34-.92.62-1.43.82l-.54 1.86c-.84.32-2.32.32-3.16 0l-.54-1.86a5.95 5.95 0 0 1-1.43-.82l-1.88.47c-.72-.54-1.46-1.82-1.58-2.71l1.35-1.39a6.41 6.41 0 0 1 0-1.72L4.99 9.16c.12-.89.86-2.17 1.58-2.71l1.88.47c.44-.34.92-.62 1.43-.82l.54-1.86z" fill="none" stroke="currentColor" stroke-width="1.65" stroke-linejoin="round"/>
  <circle cx="12" cy="11.41" r="2.6" fill="none" stroke="currentColor" stroke-width="1.65"/>
</svg>
