<svg xmlns="http://www.w3.org/2000/svg" viewBox="0 0 24 24">
  <path d="M4.25 5.75c0-.83.67-1.5 1.5-1.5h4.1c1.19 0 2.15.96 2.15 2.15v13.35c0-1.19-.96-2.15-2.15-2.15h-4.1c-.83 0-1.5-.67-1.5-1.5V5.75zM19.75 5.75c0-.83-.67-1.5-1.5-1.5h-4.1C12.96 4.25 12 5.21 12 6.4v13.35c0-1.19.96-2.15 2.15-2.15h4.1c.83 0 1.5-.67 1.5-1.5V5.75z" fill="none" stroke="currentColor" stroke-width="1.65" stroke-linejoin="round"/>
  <path d="M7.25 8h2.5M7.25 11h2.5M14.25 8h2.5M14.25 11h2.5M14.25 14h1.75" fill="none" stroke="currentColor" stroke-width="1.35" stroke-linecap="round"/>
</svg>
